# xmcd
#
# Track frame offsets:
#	150
#	1432
#	16597
#	32117
#	54692
#	56764
#	79292
#	82220
#	99202
#	101437
#	117672
#	120467
#	140045
#	152307
#	166825
#
# Disc length: 2533 seconds
#
# Revision: 0
# Processed by: cddbd v1.5.1PL0 Copyright (c) Steve Scherf et al.
# Submitted via: dBpowerAMP V4.0
#
DISCID=b909e30f
DTITLE=Howard Emerson - A Tale To Tell
DYEAR=2004
DGENRE=Blues
TTITLE0=Roll Call
TTITLE1=Flirty Skirt
TTITLE2=Phelps Flats
TTITLE3=The Bells of Tina's Kitchen
TTITLE4=The Queen's Bog Roll
TTITLE5=A Tale To Tell
TTITLE6=Liar's Lullaby
TTITLE7=At Every Twist and Turn
TTITLE8=That San Francisco Freak
TTITLE9=Maybellene
TTITLE10=El Majestic
TTITLE11=The Piping Plover Waltz
TTITLE12=and why not?
TTITLE13=When The Wistle Blows
TTITLE14=Nokie's Blue Bottle
EXTD=By HM
EXTT0=
EXTT1=
EXTT2=
EXTT3=
EXTT4=
EXTT5=
EXTT6=
EXTT7=
EXTT8=
EXTT9=
EXTT10=
EXTT11=
EXTT12=
EXTT13=
EXTT14=
PLAYORDER=
